<svg xmlns="http://www.w3.org/2000/svg" version="1.0" width="300.000000pt" height="300.000000pt" viewBox="-3 -3 306 306" preserveAspectRatio="xMidYMid meet"><g id="deeditor_bgCarrier" stroke-width="0">
  <rect id="dee_c_e" x="-3" y="-3" width="306" height="306" rx="38.4" fill="#1e293b" strokewidth="0"/>
</g>
<metadata fill="#ffffff">
Created by potrace 1.10, written by Peter Selinger 2001-2011
</metadata>
<g transform="translate(0.000000,300.000000) scale(0.100000,-0.100000)" fill="#ffffff" stroke="none">
<path d="M1806 2199 c-63 -74 -69 -106 -74 -366 l-4 -233 91 0 91 0 0 173 c0 94 -4 211 -10 259 -9 93 -38 208 -51 208 -4 0 -23 -19 -43 -41z m46 -95 c4 -21 7 -132 7 -246 1 -160 -2 -208 -11 -208 -10 0 -12 34 -10 146 4 164 2 181 -33 223 -28 32 -27 63 3 109 20 31 36 23 44 -24z m-54 -278 c2 -156 1 -167 -15 -164 -16 3 -18 19 -21 158 -3 161 0 184 21 178 9 -4 13 -49 15 -172z" fill="#ffffff"/>
<path d="M1136 2124 c-9 -8 -16 -19 -16 -24 0 -5 61 -120 136 -255 l136 -245 124 0 c68 0 124 3 124 6 0 3 -19 41 -42 85 -32 58 -47 77 -58 73 -38 -16 -46 -14 -62 14 -16 27 -16 31 3 69 22 45 15 84 -20 102 -27 15 -27 15 -23 -22 5 -41 -18 -67 -57 -67 -58 0 -116 75 -147 190 -10 36 -22 71 -27 78 -13 17 -52 15 -71 -4z m270 -304 c18 0 24 -6 24 -21 0 -27 62 -89 89 -89 13 0 26 -11 35 -29 14 -26 14 -30 0 -35 -28 -11 -120 -6 -136 7 -17 12 -98 154 -98 171 0 5 14 6 31 2 17 -3 42 -6 55 -6z" fill="#ffffff"/>
<path d="M2256 1891 c-3 -5 10 -19 29 -32 19 -13 33 -29 31 -35 -9 -24 -138 -185 -156 -194 -55 -29 -117 15 -104 74 6 30 6 31 -13 13 -11 -9 -32 -40 -47 -67 l-27 -50 36 0 c47 0 111 -33 133 -69 l17 -28 128 168 c98 130 127 175 127 199 0 29 -13 40 -25 20 -4 -7 -12 -7 -25 0 -23 12 -97 13 -104 1z" fill="#ffffff"/>
<path d="M840 1552 c-107 -53 -107 -207 0 -263 33 -18 69 -19 610 -19 541 0 577 1 610 19 107 56 107 206 0 262 -33 18 -69 19 -610 19 -527 0 -578 -1 -610 -18z m1211 -45 c47 -31 60 -85 34 -133 -10 -20 -28 -41 -39 -47 -29 -17 -1106 -23 -1166 -7 -29 8 -47 20 -60 43 -42 68 -13 133 70 161 8 2 265 5 571 5 l557 0 33 -22z" fill="#ffffff"/>
<path d="M844 1476 c-43 -43 -44 -73 -1 -114 40 -39 75 -41 116 -6 40 33 42 79 5 123 -36 43 -75 42 -120 -3z m102 -31 c15 -23 15 -27 0 -50 -19 -29 -51 -32 -78 -8 -22 20 -23 46 -2 67 24 24 61 20 80 -9z" fill="#ffffff"/>
<path d="M890 1420 c0 -11 7 -20 15 -20 8 0 15 9 15 20 0 11 -7 20 -15 20 -8 0 -15 -9 -15 -20z" fill="#ffffff"/>
<path d="M1919 1481 c-20 -20 -29 -39 -29 -61 0 -38 47 -90 82 -90 33 0 68 27 83 64 11 25 11 35 -1 58 -32 62 -89 74 -135 29z m93 -28 c22 -20 23 -41 1 -65 -20 -22 -51 -23 -75 -1 -22 20 -23 41 -1 65 20 22 51 23 75 1z" fill="#ffffff"/>
<path d="M1960 1420 c0 -11 7 -20 15 -20 8 0 15 9 15 20 0 11 -7 20 -15 20 -8 0 -15 -9 -15 -20z" fill="#ffffff"/>
<path d="M795 1148 c-89 -95 -146 -171 -184 -245 -32 -64 -30 -67 42 -59 114 11 180 54 364 236 151 149 160 160 132 160 -25 0 -48 -19 -148 -122 -94 -97 -121 -120 -136 -114 -16 6 -1 25 95 121 l115 115 -97 0 -96 0 -87 -92z m159 44 c3 -5 -17 -31 -45 -58 -71 -69 -93 -107 -79 -134 18 -33 6 -48 -62 -80 -67 -32 -108 -38 -108 -17 0 37 197 268 245 288 27 10 43 11 49 1z" fill="#ffffff"/>
<path d="M1310 1057 c0 -171 1 -185 20 -202 19 -17 21 -17 40 0 19 17 20 31 20 202 l0 183 -40 0 -40 0 0 -183z m50 -128 c0 -52 -3 -70 -12 -67 -13 5 -24 99 -14 124 14 36 26 9 26 -57z" fill="#ffffff"/>
<path d="M1490 1237 c0 -7 364 -366 368 -363 14 15 -69 127 -177 238 -110 114 -128 128 -157 128 -19 0 -34 -1 -34 -3z" fill="#ffffff"/>
</g>
</svg>