<svg xmlns="http://www.w3.org/2000/svg" xmlns:xlink="http://www.w3.org/1999/xlink" version="1.1"
  width="1080" height="1080" viewBox="0 0 1080 1080" xml:space="preserve">
<desc>Created with Fabric.js 5.2.4</desc>
<defs>
</defs>
<g transform="matrix(1 0 0 1 540 540)" id="1c348cc9-e5e6-4da8-912b-6c02d34e3d06"  >
</g>
<g transform="matrix(1 0 0 1 540 540)" id="997717bf-1c1b-429c-a865-9a5c20c3c399"  >
<rect style="stroke: none; stroke-width: 1; stroke-dasharray: none; stroke-linecap: butt; stroke-dashoffset: 0; stroke-linejoin: miter; stroke-miterlimit: 4; fill: rgb(255,255,255); fill-rule: nonzero; opacity: 1; visibility: hidden;" vector-effect="non-scaling-stroke"  x="-540" y="-540" rx="0" ry="0" width="1080" height="1080" />
</g>
<g transform="matrix(4.38 0 0 4.38 539.89 539.89)"  >
<circle style="stroke: none; stroke-width: 1; stroke-dasharray: none; stroke-linecap: butt; stroke-dashoffset: 0; stroke-linejoin: miter; stroke-miterlimit: 4; fill: rgb(0,0,0); fill-opacity: 0; fill-rule: nonzero; opacity: 1;" vector-effect="non-scaling-stroke"  cx="0" cy="0" r="120" />
</g>
<g transform="matrix(6.5 0 0 6.5 540 540)"  >
<path style="stroke: none; stroke-width: 1; stroke-dasharray: none; stroke-linecap: butt; stroke-dashoffset: 0; stroke-linejoin: miter; stroke-miterlimit: 4; fill: rgb(131,103,199); fill-rule: nonzero; opacity: 1;" vector-effect="non-scaling-stroke"  transform=" translate(-120, -120)" d="M 60 42 L 58 46 L 79 58 C 79 68 75 76 66 81 L 45 69 L 44 71 C 49 86 59 96 79 96 C 84 96 99 111 107 119 L 123 103 C 115 95 97 77 97 72 C 97 54 92 42 60 42 z M 185 47 L 165 61 L 163 69 L 105 127 L 97 122 L 93 126 C 93 138 79 144 73 144 L 40 177 C 40 187 51 198 61 198 L 94 165 C 94 159 100 145 112 145 L 116 141 L 111 133 L 169 75 L 177 73 L 191 53 L 185 47 z M 135 115 L 119 131 C 131 143 147 159 147 164 C 147 182 152 194 184 194 L 186 190 L 165 178 C 165 168 169 160 178 155 L 199 167 L 200 165 C 195 150 185 140 165 140 C 160 140 147 127 135 115 z" stroke-linecap="round" />
</g>
<g transform="matrix(NaN NaN NaN NaN 0 0)"  >
<g style=""   >
</g>
</g>
<g transform="matrix(NaN NaN NaN NaN 0 0)"  >
<g style=""   >
</g>
</g>
<g transform="matrix(NaN NaN NaN NaN 0 0)"  >
<g style=""   >
</g>
</g>
</svg>